<?xml version="1.0" standalone="no"?>
<!DOCTYPE svg PUBLIC "-//W3C//DTD SVG 20010904//EN"
 "http://www.w3.org/TR/2001/REC-SVG-20010904/DTD/svg10.dtd">
<svg version="1.0" xmlns="http://www.w3.org/2000/svg"
 width="752.000000pt" height="752.000000pt" viewBox="0 0 752.000000 752.000000"
 preserveAspectRatio="xMidYMid meet">
<metadata>
Created by potrace 1.14, written by Peter Selinger 2001-2017
</metadata>
<g transform="translate(0.000000,752.000000) scale(0.100000,-0.100000)"
fill="#000000" stroke="none">
<path d="M1825 5830 c-131 -8 -200 -49 -258 -155 l-22 -40 -3 -1523 c-1 -1002
1 -1537 8 -1561 22 -81 101 -164 181 -190 26 -8 300 -12 995 -14 l959 -2 1
-253 c0 -171 -3 -252 -10 -253 -6 0 -177 -2 -381 -2 l-370 -2 -3 -72 -3 -73
28 0 c100 0 1567 -1 1606 0 l48 0 -3 73 -3 72 -380 0 -380 0 0 255 0 255 963
2 964 2 51 24 c59 27 109 74 140 132 l22 40 0 1545 0 1545 -22 41 c-31 59 -79
103 -140 131 l-53 24 -1922 2 c-1058 1 -1963 0 -2013 -3z m3941 -164 c69 -41
64 70 64 -1420 l0 -1346 -2070 0 -2070 0 0 1345 c0 994 3 1351 12 1369 12 28
48 55 84 65 13 3 907 6 1986 6 1889 -1 1964 -2 1994 -19z m64 -3000 c0 -91
-21 -136 -74 -158 -23 -9 -473 -12 -2001 -12 -1890 0 -1972 1 -2001 18 -50 30
-64 64 -64 153 l0 79 2070 0 2070 0 0 -80z"/>
<path d="M2923 5078 c-21 -5 -34 -17 -40 -36 -6 -15 -9 -181 -9 -370 l1 -344
24 -19 c22 -18 43 -19 373 -19 l349 0 23 25 c19 20 23 35 21 77 -15 374 -300
662 -685 693 -14 1 -39 -2 -57 -7z m192 -167 c139 -40 269 -151 340 -290 32
-62 63 -166 53 -176 -5 -5 -287 -8 -440 -6 l-47 1 1 245 1 246 26 -4 c14 -3
44 -10 66 -16z"/>
<path d="M5300 4914 c-84 -41 -157 -74 -162 -74 -5 0 -20 -12 -33 -26 l-25
-27 0 -687 0 -687 23 -21 c22 -21 32 -22 208 -22 183 0 186 0 208 24 l22 24 0
756 c0 501 -4 762 -11 775 -9 17 -33 31 -66 37 -6 1 -80 -31 -164 -72z m94
-755 c-1 -430 -5 -633 -12 -638 -8 -5 -76 -6 -139 -2 -10 1 -13 128 -13 599
l0 599 78 36 c42 20 79 37 82 37 3 0 4 -284 4 -631z"/>
<path d="M2549 4776 c-2 -2 -22 -6 -44 -9 -52 -8 -112 -29 -189 -68 -183 -93
-324 -277 -370 -484 -21 -95 -15 -266 12 -358 117 -387 527 -603 913 -480 274
87 475 348 493 640 3 56 1 68 -19 91 l-23 27 -300 0 -300 0 0 275 c-1 151 -1
287 -1 301 -1 14 -10 35 -21 47 -17 18 -32 22 -84 22 -34 0 -65 -2 -67 -4z
m22 -153 c0 -5 2 -140 2 -300 2 -284 3 -293 23 -314 21 -20 29 -21 318 -21
341 0 314 11 273 -109 -59 -170 -189 -301 -357 -360 -84 -29 -238 -35 -324
-13 -215 56 -379 230 -421 447 -15 77 -13 181 5 247 52 198 215 363 410 414
66 18 70 18 71 9z"/>
<path d="M4690 4637 c-48 -23 -123 -59 -168 -81 -45 -21 -89 -48 -97 -59 -13
-18 -15 -99 -15 -548 0 -517 0 -527 21 -553 l20 -26 188 0 c175 0 189 1 209
20 17 16 22 32 22 73 1 29 1 304 1 612 l0 560 -26 23 c-35 30 -56 27 -155 -21z
m35 -632 c1 -259 -1 -474 -2 -480 -3 -8 -110 -12 -155 -6 -5 1 -8 201 -8 445
l0 445 68 35 c37 19 74 34 82 33 13 -2 15 -66 15 -472z"/>
<path d="M4105 4391 c-18 -6 -135 -61 -289 -137 -34 -16 -62 -37 -67 -50 -4
-13 -8 -194 -8 -403 0 -365 1 -381 20 -405 l20 -26 185 0 c102 0 194 4 204 10
10 5 22 22 27 37 4 16 8 232 8 481 -1 438 -2 453 -21 472 -22 23 -50 30 -79
21z m-50 -530 c0 -183 -4 -335 -9 -338 -4 -3 -42 -6 -82 -7 l-74 -1 0 306 0
305 73 36 c39 20 77 35 82 34 6 -2 10 -122 10 -335z"/>
</g>
</svg>
